# xmcd CD database file
#
# Track frame offsets:
#	150
#	21217
#	40425
#	62435
#	86252
#	109920
#	132065
#	150990
#	178452
#	200040
#
# Disc length: 3102 seconds
#
# Revision: 2
# Processed by: cddbd v1.4PL0 Copyright (c) Steve Scherf et al.
# Submitted via: CDex 1.40Beta9
#
DISCID=810c1c0a
DTITLE=Bluezeum - Portrait Of A Groove
DYEAR=1996
DGENRE=Swing
TTITLE0=Portrait Of A Groove
TTITLE1=Can I Get That Funk
TTITLE2=Luv Uncondishunal
TTITLE3=Dreamtyme
TTITLE4=Every Day And Every Minute
TTITLE5=Just Anotha Day
TTITLE6='Swing
TTITLE7=Strange Love
TTITLE8=Last Night
TTITLE9=Soundscape
EXTD=YEAR: 1996 ID3G: 83
EXTT0=
EXTT1=
EXTT2=
EXTT3=
EXTT4=
EXTT5=
EXTT6=
EXTT7=
EXTT8=
EXTT9=
PLAYORDER=
